<?xml version="1.0" encoding="utf-8"?>
<!-- Svg Vector Icons : http://www.onlinewebfonts.com/icon -->
<!DOCTYPE svg PUBLIC "-//W3C//DTD SVG 1.1//EN" "http://www.w3.org/Graphics/SVG/1.1/DTD/svg11.dtd">
<svg version="1.1" xmlns="http://www.w3.org/2000/svg" xmlns:xlink="http://www.w3.org/1999/xlink" x="0px" y="0px" viewBox="0 0 1000 1000" enable-background="new 0 0 1000 1000" xml:space="preserve">
<metadata> Svg Vector Icons : http://www.onlinewebfonts.com/icon </metadata>
<g><path d="M535.4,893.7c-5.9,0-12-1.2-18.2-3.5c-11.2-4.3-23.3-10.8-35.7-19.5c-11.8-8.2-24.4-18-37.6-29c-12.8-10.7-25.2-20.9-37.2-30.5c-11.6-9.3-22.9-17.3-33.7-23.8c-8.9-5.4-16.8-8.1-23.6-8.1c-11.1,0-24.8,5.8-40.8,17.3c-18.5,13.4-37.6,27.8-56.8,42.8c-20,15.7-39.3,28.7-57.4,38.4c-23,12.4-43.7,12.3-59.7,0.3c-8-5.8-17.8-17.1-17.8-37.1c0-12.2,2.3-26.2,6.9-41.5c4.4-14.5,10.2-29.9,17.4-45.7c6.7-14.8,12.9-29.6,18.4-43.9c5.3-13.9,9.5-27.2,12.4-39.7c2.4-10.4,2.7-18.8,0.8-25.1c-1.9-6.2-6.9-12.9-14.7-20c-9.5-8.5-20.7-17.2-33.3-25.8c-13.1-9-26.5-17.9-40.3-26.9c-14.4-9.3-27.3-18.8-38.5-28.2c-11.9-10-21.3-20.3-28-30.5c-8.7-13.3-10.5-27.6-5.2-41.3c3.6-9.4,12-21.9,31.2-28.1c12-3.9,26-6.2,41.6-7c14.8-0.7,31-0.5,48.6,0.5c17,1,33.4,2.1,49,3.1c14.9,1,28.5,1.2,40.8,0.5c12.7-0.7,19.2-3.1,22.4-5.1c4.1-2.4,12.3-10.2,21.5-34.3c8.2-21.5,16.4-44.4,24.3-68.1c8.1-24.3,16.5-46.3,25-65.4c11-24.9,25.4-37.5,42.5-37.5c8.6,0,21.3,3.6,32.5,20.7c6.5,9.9,12.6,22.5,18.2,37.4c5.3,14.2,10.5,30,15.5,46.9c4.8,16.5,9.6,32.4,14.5,47.5c4.7,14.8,9.6,28.1,14.6,39.7c5.7,13.3,10,17.2,11.1,18.1c1.1,0.8,5.7,3.6,18.9,4.7c11.9,1,25.1,1.1,39.6,0.5c15.3-0.7,31.5-1.4,48.5-2.1c17.7-0.7,34.2-0.4,49.5,1.1c16.1,1.5,30.5,4.9,43,9.9c2.7,1.1,5.3,2.3,7.7,3.7c-5.8-5.6-12-16.6-7-35.4c3-11.1,7.3-23.1,12.8-35.6c5-11.4,9.6-22.9,13.6-34.3c4.2-11.9,3.3-17,2.9-18.3c-0.5-1-3.5-5.9-13.4-13.1c-9.9-7.2-20.2-14.4-30.8-21.6c-11.4-7.7-21.4-15.6-29.6-23.5c-16.7-15.9-14.1-31-11-38.6c3.5-8.7,12-19.6,32.9-22.3c11.7-1.5,24.5-1.9,38.3-1.1l37.5,2.1c1.7,0.1,3.3,0.1,4.8,0.1c8.9,0,11.9-1.6,12.4-1.9c0.4-0.3,4.1-2.8,8.8-14.8c4.4-11.2,8.7-22.9,12.7-35.1c4.3-12.9,8.9-24.8,13.6-35.3c7.3-16.2,17.2-24.4,29.5-24.4s22.2,8.2,29.5,24.4c4.8,10.6,9.2,22.8,13.2,36.3c3.8,12.7,7.6,24.9,11.3,36.6c4,12.3,7.2,14.9,7.2,15c0.5,0.4,3.2,1.8,12.1,1.8l46.7-1.2c12,0,23.3,1,33.8,2.9c21.1,3.9,29.4,15.6,32.7,24.7c2.9,8.1,5.2,24-12.8,39.6c-9.1,7.9-19.9,15.5-32.2,22.6c-11.3,6.5-22,13-32.2,19.4c-9.5,6-10.8,9.4-10.8,9.5c-0.6,1.9-1.8,6.4,2.3,19.3c3.8,12.1,7.8,24.3,11.9,36.7c4.3,13,7.7,25.2,9.9,36.3c4.5,22.6-6.2,33.6-13,38.1c-13.7,7.8-25.9,5.8-39.9-2.8c-9.7-6-19.8-13.5-30.1-22.3c-9.6-8.2-19.1-16-28.6-23.5c-9.3-7.3-14.5-8.1-16.3-8.1c-2.4,0-7.8,1-17.3,7.9c-9.9,7.2-19.8,14.7-29.6,22.5c-10.7,8.5-21.2,15.6-31.3,21.2c-12.7,7-25.1,7.8-35.5,2.5c6.4,5.6,11.2,12.5,14.1,20.5c5.1,14.3,3.3,28.9-5.2,42.3c-6.9,11-17.2,21.6-30.6,31.4c-12.2,9-26.2,18-41.5,27c-14.8,8.6-28.9,17.1-42.4,25.3c-12.9,7.9-24.2,15.9-33.6,23.7c-9.8,8.1-12.4,13.5-13.1,15.9c-0.9,3.8-1.6,11.3,1.2,24.3c2.6,12.2,6.5,25.8,11.5,40.4c5.2,15.2,10.6,30.8,16.1,46.8c5.7,16.5,10.3,32.1,13.5,46.5c3.4,15.3,4.8,29.2,4,41.4c-1.3,19.6-10.6,30-18.1,35.3C551,891.5,543.5,893.7,535.4,893.7z M349.5,747.7c12.6,0,26,4.3,39.9,12.7c12,7.2,24.4,16,37.1,26.2c12.2,9.8,24.8,20.1,37.8,31c12.4,10.4,24.3,19.6,35.3,27.3c10.3,7.2,20,12.5,28.9,15.9c5.3,2,9,2.1,12.5-0.1c0.6-0.4,3.6-2.6,4.2-11.1c0.6-9.2-0.5-20.1-3.3-32.5c-3-13.2-7.2-27.7-12.5-43.1c-5.6-16-11-31.6-16.2-46.9c-5.4-15.7-9.6-30.5-12.5-43.9c-3.3-15.4-3.6-28.1-0.9-38.9c3.1-11.3,10.7-21.7,23.5-32.3c10.5-8.7,23-17.6,37.2-26.3c13.7-8.4,28-17,43-25.7c14.4-8.3,27.4-16.8,38.7-25.1c10.1-7.5,17.7-15.1,22.5-22.8c3.3-5.3,4-9.8,2.1-14.9c-1.2-3.4-3.9-8.4-12.9-12c-9.6-3.9-21.1-6.5-34.1-7.8c-13.9-1.3-29-1.6-45.2-1c-17,0.7-33.1,1.4-48.3,2.1c-16,0.7-30.6,0.5-43.7-0.6c-15.7-1.3-27.2-4.9-35.2-10.9c-7.9-5.9-14.8-16-21.2-30.9c-5.4-12.5-10.6-26.8-15.6-42.5c-4.9-15.4-9.8-31.5-14.7-48.3c-4.7-16.2-9.7-31.2-14.7-44.7c-4.8-12.7-9.9-23.3-15.1-31.3c-3.3-5-5.6-6.3-6.1-6.4c-1.4,0-6.9,3.4-13.7,18.8c-8.1,18.2-16.2,39.3-23.9,62.6c-8,24.1-16.4,47.5-24.7,69.4c-9.7,25.5-21.1,41.9-34.7,50.1c-9.3,5.6-21.3,8.7-36.9,9.5c-13.4,0.7-28.3,0.5-44.6-0.5c-15.6-1-31.9-2.1-48.9-3.1c-16.4-1-31.4-1.2-45.1-0.5c-12.8,0.6-24,2.5-33.4,5.5c-7.9,2.6-10.3,6.4-11.5,9.4c-1.1,3-1.8,6.8,2.1,12.8c5,7.7,12.4,15.6,21.9,23.6c10.2,8.6,22.1,17.3,35.4,25.9c14,9.1,27.6,18.2,40.9,27.3c13.7,9.4,26,18.9,36.5,28.3c12.2,10.9,20.2,22.4,23.8,34.2c3.6,11.7,3.5,25.7-0.2,41.6c-3.3,13.8-7.9,28.5-13.6,43.6c-5.7,14.9-12.1,30.2-19.1,45.7c-6.6,14.5-12,28.6-15.9,41.7c-3.7,12.4-5.6,23.3-5.6,32.4c0,7.1,2.5,9.9,5,11.7c6.7,5,14.7,3.4,25.9-2.7c16.5-8.9,34.3-20.9,52.9-35.5c19.5-15.3,38.9-30,57.8-43.6C311.9,755.3,331.3,747.7,349.5,747.7z M796.2,380.2c11.4,0,23.1,4.9,35.8,14.8c9.9,7.8,19.8,15.9,29.7,24.4c9,7.7,17.8,14.3,26.1,19.4c2.9,1.8,4.8,2.4,5.9,2.7c0.1-0.9,0-2.5-0.4-4.9c-2-9.8-4.9-20.7-8.9-32.5c-4.2-12.6-8.2-25-12.1-37.2c-4.8-15.1-5.7-27.1-2.8-36.5c2.6-10.3,10.6-19.6,24.5-28.4c10.6-6.7,21.7-13.4,33.4-20.1c10.5-6,19.6-12.4,27.2-19c3-2.7,3.9-4.4,4-4.9c-1-2.9-6.1-4.2-9-4.7c-8.5-1.6-17.9-2.4-28-2.4l-46.7,1.2c-14.6,0-24.5-2.7-31.4-8.4c-6.9-4.9-12.9-14.7-17.9-30.2c-3.8-11.9-7.7-24.4-11.6-37.3c-3.6-12.2-7.6-23.1-11.8-32.4c-0.2-0.5-0.5-1.1-0.7-1.5c-0.2,0.5-0.5,1-0.7,1.5c-4.3,9.6-8.5,20.5-12.4,32.4c-4.3,12.8-8.7,25-13.3,36.7c-5.8,14.8-12.9,24.6-21.4,30c-8.5,5.3-19.9,7.4-35.8,6.5l-37.4-2.1c-11.8-0.6-22.7-0.3-32.5,0.9c-5.1,0.7-7.4,2-7.7,2.7c0,0,0,0,0,0c0.1,0,1,1.6,3.5,4.1c7,6.7,15.6,13.5,25.6,20.2c10.9,7.4,21.4,14.8,31.6,22.2c12.6,9.2,20.7,18.4,24.7,28.3c3.6,11.6,2.5,24-2.9,39.2c-4.3,12.1-9.1,24.4-14.5,36.5c-4.9,11-8.6,21.5-11.2,31c-1.1,4-0.7,5.6-0.7,5.6c1.2,0,3-0.2,6.4-2.1c8.6-4.8,17.7-11,27-18.4c10.3-8.1,20.5-15.9,30.7-23.3C773.3,384.7,785,380.2,796.2,380.2z"/></g>
</svg>