<?xml version="1.0" encoding="utf-8"?>
<!-- Svg Vector Icons : http://www.onlinewebfonts.com/icon -->
<!DOCTYPE svg PUBLIC "-//W3C//DTD SVG 1.1//EN" "http://www.w3.org/Graphics/SVG/1.1/DTD/svg11.dtd">
<svg version="1.1" xmlns="http://www.w3.org/2000/svg" xmlns:xlink="http://www.w3.org/1999/xlink" x="0px" y="0px" viewBox="0 0 1000 1000" enable-background="new 0 0 1000 1000" xml:space="preserve">
<metadata> Svg Vector Icons : http://www.onlinewebfonts.com/icon </metadata>
<g><path d="M741.4,975.5c-15.9,0-31.7-3.9-45.8-11.5L500,858.8L304.5,964c-31.7,16.9-71.4,14.6-100.6-5.4c-30-20.7-45.5-56.8-39.5-92.1l38.3-228.8l-165.3-165c-25.4-25.3-34-61.9-22.4-95.7c11.5-33.4,40.7-57.5,76.1-62.7L316,280.8l97.6-202.7c15.7-32.6,49.6-53.6,86.3-53.6c36.7,0,70.6,21.1,86.3,53.6L684,280.8l224.8,33.4c35.4,5.2,64.6,29.3,76.2,62.7c11.6,33.8,3,70.5-22.4,95.7l-165.3,165l38.3,228.8c5.9,35.3-9.5,71.5-39.4,92.1C779.9,969.7,761,975.5,741.4,975.5L741.4,975.5z M500,797.1c4.7,0,9.4,1.2,13.7,3.4l209.2,112.6c12.6,6.7,28.8,5.9,40.6-2.2c11.6-8,17.4-21.3,15.1-34.8l-40.8-243.5c-1.5-9.2,1.5-18.6,8.1-25.2l175.9-175.6c9.6-9.6,12.9-23.4,8.5-36c-4.5-12.9-16-22.2-30-24.3l-239.9-35.7c-9.5-1.4-17.6-7.4-21.8-16L534.3,103.2c-6.1-12.7-19.6-20.9-34.2-20.9c-14.7,0-28.1,8.2-34.3,20.9L361.5,319.7c-4.1,8.6-12.3,14.6-21.8,16l-240,35.7c-13.8,2.1-25.6,11.6-30,24.4c-4.3,12.6-1,26.4,8.6,36l175.8,175.6c6.6,6.6,9.6,16,8.1,25.2l-40.8,243.5c-2.3,13.5,3.5,26.9,15.2,34.9c11.6,8,27.8,8.9,40.6,2.1l209.1-112.6C490.6,798.2,495.3,797.1,500,797.1L500,797.1z"/></g>
</svg>